<svg xmlns="http://www.w3.org/2000/svg" viewBox="0 0 64 64" role="img" aria-label="Recall">
  <rect width="64" height="64" rx="22" fill="url(#paint0_linear)" />
  <path
    d="M35.2 12.9c9.2 0 16.5 7.5 16.5 16.6 0 3.5-1.1 6.8-3 9.5 3.6 1.5 5.9 4.3 5.9 7.9 0 5.1-4.3 8.8-10 8.8H28.9C18.1 55.7 9.3 46.9 9.3 36.1s8.8-19.6 19.6-19.6c1.3 0 2.7.1 4 .4.7-2.3 1.5-4 2.3-4Z"
    fill="#07070B"
  />
  <path
    d="M40.5 25.1c3.5 0 6.3 2.8 6.3 6.3 0 1.2-.3 2.3-.9 3.2"
    fill="none"
    stroke="#2B1C3F"
    stroke-linecap="round"
    stroke-width="2.6"
  />
  <defs>
    <linearGradient id="paint0_linear" x1="8" x2="56" y1="8" y2="56">
      <stop stop-color="#B97AFF" />
      <stop offset=".52" stop-color="#6B44F2" />
      <stop offset="1" stop-color="#2F6BFF" />
    </linearGradient>
  </defs>
</svg>
